Coordinates
version=1
nRows=13
nColumns=40
inDegrees=yes

Units are S.I. units (second, meters, Newtons, ...)
If the header above contains a line with 'inDegrees', this indicates whether rotational values are in degrees (yes) or radians (no).

endheader
time	pelvis_tilt	pelvis_list	pelvis_rotation	pelvis_tx	pelvis_ty	pelvis_tz	hip_flexion_r	hip_adduction_r	hip_rotation_r	knee_angle_r	knee_angle_r_beta	ankle_angle_r	subtalar_angle_r	mtp_angle_r	hip_flexion_l	hip_adduction_l	hip_rotation_l	knee_angle_l	knee_angle_l_beta	ankle_angle_l	subtalar_angle_l	mtp_angle_l	lumbar_extension	lumbar_bending	lumbar_rotation	arm_flex_r	arm_add_r	arm_rot_r	elbow_flex_r	pro_sup_r	wrist_flex_r	wrist_dev_r	arm_flex_l	arm_add_l	arm_rot_l	elbow_flex_l	pro_sup_l	wrist_flex_l	wrist_dev_l
      3.84500000	    -16.02909020	     -1.60155173	     -0.10852418	      0.16765414	      0.88485017	     -1.16781066	     24.63433694	    -23.93399489	    -36.32119734	     18.60381089	      0.32469775	     -1.52141370	      9.62294429	      0.00000000	     29.42646628	    -26.39179600	    -24.65576128	     19.37538503	      0.33816426	     -1.66027917	     13.09464486	      0.00000000	      0.00000000	      0.00000000	      0.00000000	     44.63610030	    -16.07744738	     44.63610030	     74.92237357	     44.97067759	      0.00000000	      0.00000000	     44.63610030	    -16.07744738	     44.63610030	     74.92237357	     44.97067759	      0.00000000	      0.00000000
      3.85000000	    -16.39639336	     -1.53008403	     -0.07769545	      0.16678442	      0.88349248	     -1.16787830	     25.42667463	    -24.22915731	    -36.03597776	     19.34060263	      0.33755720	     -1.22683380	      9.27290896	      0.00000000	     30.17900008	    -26.42642514	    -24.46210395	     19.94307285	      0.34807228	     -1.41857694	     12.98143144	      0.00000000	      0.00000000	      0.00000000	      0.00000000	     44.64413901	    -16.04187394	     44.64413901	     74.92657895	     44.97366527	      0.00000000	      0.00000000	     44.64413901	    -16.04187394	     44.64413901	     74.92657895	     44.97366527	      0.00000000	      0.00000000
      3.85500000	    -16.78015944	     -1.42602638	     -0.05199319	      0.16587524	      0.88205191	     -1.16791750	     26.27420185	    -24.56454980	    -35.69990978	     20.12153142	      0.35118697	     -0.94180212	      8.88885015	      0.00000000	     30.93865909	    -26.42822410	    -24.26837065	     20.50583077	      0.35789426	     -1.20266504	     12.85162559	      0.00000000	      0.00000000	      0.00000000	      0.00000000	     44.65263471	    -16.00438148	     44.65263471	     74.93096925	     44.97668771	      0.00000000	      0.00000000	     44.65263471	    -16.00438148	     44.65263471	     74.93096925	     44.97668771	      0.00000000	      0.00000000
      3.86000000	    -17.61625650	     -1.35912821	     -0.13102973	      0.16457969	      0.87975474	     -1.16772771	     27.71001871	    -24.74313552	    -34.97319886	     20.84990965	      0.36389957	     -0.90898044	      7.95181459	      0.00000000	     32.25203534	    -26.52369968	    -23.98030968	     21.15480251	      0.36922096	     -1.20417888	     12.43398251	      0.00000000	      0.00000000	      0.00000000	      0.00000000	     44.66098574	    -15.96847456	     44.66098574	     74.93495586	     44.97907827	      0.00000000	      0.00000000	     44.66098574	    -15.96847456	     44.66098574	     74.93495586	     44.97907827	      0.00000000	      0.00000000
      3.86500000	    -17.59513901	     -1.09554684	      0.23285218	      0.16389187	      0.87888969	     -1.16836933	     28.01288224	    -25.56290852	    -35.26584159	     21.87624148	      0.38181244	     -0.23511869	      8.41411763	      0.00000000	     32.58518660	    -26.10580544	    -23.52870493	     21.53442923	      0.37584669	     -0.89079467	     12.18650087	      0.00000000	      0.00000000	      0.00000000	      0.00000000	     44.67865506	    -15.89598151	     44.67865506	     74.94237013	     44.98298520	      0.00000000	      0.00000000	     44.67865506	    -15.89598151	     44.67865506	     74.94237013	     44.98298520	      0.00000000	      0.00000000
      3.87000000	    -17.98711342	     -0.85314189	      0.30933840	      0.16286415	      0.87728310	     -1.16836660	     28.95176905	    -26.10127812	    -34.88743053	     22.79356432	      0.39782275	      0.09716960	      8.05705368	      0.00000000	     33.30782621	    -25.91278191	    -23.31095542	     21.99502825	      0.38388566	     -0.77306541	     11.93591974	      0.00000000	      0.00000000	      0.00000000	      0.00000000	     44.68914733	    -15.85043047	     44.68914733	     74.94748045	     44.98607441	      0.00000000	      0.00000000	     44.68914733	    -15.85043047	     44.68914733	     74.94748045	     44.98607441	      0.00000000	      0.00000000
      3.87500000	    -18.46540127	     -0.69600425	      0.41333549	      0.16181444	      0.87532225	     -1.16843921	     29.97203852	    -26.60219399	    -34.60457467	     23.77050293	      0.41487354	      0.52920326	      7.86521215	      0.00000000	     34.25397773	    -25.84190977	    -23.05736546	     22.66356382	      0.39555381	     -0.52764640	     11.75901272	      0.00000000	      0.00000000	      0.00000000	      0.00000000	     44.70491400	    -15.78841468	     44.70491400	     74.95334844	     44.98869054	      0.00000000	      0.00000000	     44.70491400	    -15.78841468	     44.70491400	     74.95334844	     44.98869054	      0.00000000	      0.00000000
      3.88000000	    -18.88435679	     -0.61388137	      0.52849807	      0.16073924	      0.87352779	     -1.16853315	     30.87031908	    -26.99469336	    -34.34728969	     24.64497606	      0.43013598	      0.86128398	      7.59012900	      0.00000000	     35.13112577	    -25.79942505	    -22.68209161	     23.23949645	      0.40560573	     -0.35808616	     11.51291624	      0.00000000	      0.00000000	      0.00000000	      0.00000000	     44.71724283	    -15.74071336	     44.71724283	     74.95772232	     44.99049545	      0.00000000	      0.00000000	     44.71724283	    -15.74071336	     44.71724283	     74.95772232	     44.99049545	      0.00000000	      0.00000000
      3.88500000	    -19.31342429	     -0.70132519	      0.63043509	      0.15958899	      0.87158040	     -1.16866107	     31.71519060	    -27.19119077	    -34.15787170	     25.41998536	      0.44366244	      1.09184415	      7.26568041	      0.00000000	     36.17482547	    -25.99686117	    -22.30741756	     24.04173682	      0.41960747	     -0.07319699	     11.38775355	      0.00000000	      0.00000000	      0.00000000	      0.00000000	     44.72057048	    -15.72791942	     44.72057048	     74.95889565	     44.99101434	      0.00000000	      0.00000000	     44.72057048	    -15.72791942	     44.72057048	     74.95889565	     44.99101434	      0.00000000	      0.00000000
      3.89000000	    -19.63219451	     -0.69715422	      0.71469851	      0.15853248	      0.86983657	     -1.16868552	     32.46660744	    -27.47918484	    -33.96074801	     26.21282527	      0.45750011	      1.39990936	      7.06711298	      0.00000000	     36.98912471	    -26.09798629	    -22.03997063	     24.71352235	      0.43133233	      0.18920748	     11.36150756	      0.00000000	      0.00000000	      0.00000000	      0.00000000	     44.72402044	    -15.71514165	     44.72402044	     74.95997869	     44.99140800	      0.00000000	      0.00000000	     44.72402044	    -15.71514165	     44.72402044	     74.95997869	     44.99140800	      0.00000000	      0.00000000
      3.89500000	    -20.15336982	     -0.70691465	      0.80656315	      0.15728837	      0.86753432	     -1.16873632	     33.50436874	    -27.80939471	    -33.73797398	     27.14827971	      0.47382687	      1.74105995	      6.88328014	      0.00000000	     38.11428209	    -26.21366363	    -21.66988604	     25.51332055	      0.44529145	      0.44551564	     11.18261151	      0.00000000	      0.00000000	      0.00000000	      0.00000000	     44.72795101	    -15.70061052	     44.72795101	     74.96120743	     44.99185278	      0.00000000	      0.00000000	     44.72795101	    -15.70061052	     44.72795101	     74.96120743	     44.99185278	      0.00000000	      0.00000000
      3.90000000	    -20.21031618	     -0.70460163	      0.81561058	      0.15632061	      0.86654265	     -1.16856091	     33.89890507	    -27.94837143	    -33.48312048	     27.65193649	      0.48261734	      1.78889834	      6.56626770	      0.00000000	     38.48609517	    -26.30126480	    -21.50749068	     25.90254779	      0.45208474	      0.45113925	     10.89405978	      0.00000000	      0.00000000	      0.00000000	      0.00000000	     44.73078527	    -15.69043155	     44.73078527	     74.96201498	     44.99209567	      0.00000000	      0.00000000	     44.73078527	    -15.69043155	     44.73078527	     74.96201498	     44.99209567	      0.00000000	      0.00000000
      3.90500000	    -20.96247558	     -0.73675944	      0.95091422	      0.15496121	      0.86335985	     -1.16872356	     35.26303047	    -28.40251739	    -33.38634878	     28.87607910	      0.50398266	      2.36399405	      6.60984172	      0.00000000	     40.02167615	    -26.47038880	    -21.07609482	     26.97979815	      0.47088631	      0.95631208	     10.96951986	      0.00000000	      0.00000000	      0.00000000	      0.00000000	     44.73570143	    -15.67267493	     44.73570143	     74.96344600	     44.99255182	      0.00000000	      0.00000000	     44.73570143	    -15.67267493	     44.73570143	     74.96344600	     44.99255182	      0.00000000	      0.00000000
